<!DOCTYPE svg PUBLIC "-//W3C//DTD SVG 1.1//EN" "http://www.w3.org/Graphics/SVG/1.1/DTD/svg11.dtd">
<!-- Uploaded to: SVG Repo, www.svgrepo.com, Transformed by: SVG Repo Mixer Tools -->
<svg version="1.1" id="Uploaded to svgrepo.com" xmlns="http://www.w3.org/2000/svg" xmlns:xlink="http://www.w3.org/1999/xlink" width="101px" height="101px" viewBox="0 0 32.00 32.00" xml:space="preserve" fill="#ff0000" stroke="#ff0000" stroke-width="1.28">
<g id="SVGRepo_bgCarrier" stroke-width="0"/>
<g id="SVGRepo_tracerCarrier" stroke-linecap="round" stroke-linejoin="round" stroke="#CCCCCC" stroke-width="1.6640000000000001"/>
<g id="SVGRepo_iconCarrier"> <style type="text/css"> .feather_een{fill:#ff0000;} </style> <path class="feather_een" d="M29,20c0-0.552-0.448-1-1-1h-3c-0.552,0-1,0.448-1,1v1h-1v-1c0-0.552-0.448-1-1-1h-3 c-0.552,0-1,0.448-1,1v1h-1V6c0-0.552-0.448-1-1-1l0,0V4c0-0.552-0.448-1-1-1h-3c-0.552,0-1,0.448-1,1v1l0,0c-0.552,0-1,0.448-1,1v7 H9v-1c0-0.552-0.448-1-1-1H5c-0.552,0-1,0.448-1,1v1H3c-0.552,0-1,0.448-1,1v15c0,0.552,0.448,1,1,1h26c0.552,0,1-0.448,1-1v-7 c0-0.552-0.448-1-1-1V20z M25,20h3v1h-3V20z M19,20h3v1h-3V20z M12,4h3v1h-3V4z M11,6h5v7h-5V6z M5,12h3v1H5V12z M3,14h13v7H3V14z M29,29H3v-7h26V29z"/> </g>
</svg>